PathFileType	4	(X/Y/Z)	C:/Users/opensim2020/Desktop/walking_exp_matlab/subject01_walking14_straight_02.trc																																																																																																																												
DataRate	CameraRate	NumFrames	NumMarkers	Units	OrigDataRate	OrigDataStartFrame	OrigNumFrames																																																																																																																								
100	100	4	42	mm	100	1209	125																																																																																																																								
Frame#	Time	LFHD			RFHD			LBHD			RBHD			C7			T10			CLAV			STRN			RBAK			LSHO			LUPA			LELB			LFRM			LWRA			LWRB			LFIN			RSHO			RUPA			RELB			RFRM			RWRA			RWRB			RFIN			LASI			RASI			LPSI			RPSI			LTHI			LKNE			LTIB			LANK			LHEE			LTOE			RTHI			RKNE			RTIB			RANK			RHEE			RTOE			*39			*40			*41		
		X1	Y1	Z1	X2	Y2	Z2	X3	Y3	Z3	X4	Y4	Z4	X5	Y5	Z5	X6	Y6	Z6	X7	Y7	Z7	X8	Y8	Z8	X9	Y9	Z9	X10	Y10	Z10	X11	Y11	Z11	X12	Y12	Z12	X13	Y13	Z13	X14	Y14	Z14	X15	Y15	Z15	X16	Y16	Z16	X17	Y17	Z17	X18	Y18	Z18	X19	Y19	Z19	X20	Y20	Z20	X21	Y21	Z21	X22	Y22	Z22	X23	Y23	Z23	X24	Y24	Z24	X25	Y25	Z25	X26	Y26	Z26	X27	Y27	Z27	X28	Y28	Z28	X29	Y29	Z29	X30	Y30	Z30	X31	Y31	Z31	X32	Y32	Z32	X33	Y33	Z33	X34	Y34	Z34	X35	Y35	Z35	X36	Y36	Z36	X37	Y37	Z37	X38	Y38	Z38	X39	Y39	Z39	X40	Y40	Z40	X41	Y41	Z41	X42	Y42	Z42
																																																																																																																															
63	0.62	-165.09109	1650.15979	1054.87817	-106.4116	1649.99597	1153.40247	-269.92224	1610.45776	1111.11511	-210.52873	1609.30859	1214.49402	-308.27817	1416.79395	1126.21143	-347.35617	1120.38562	1120.50464	-162.79782	1345.84888	1118.41663	-121.89336	1193.61841	1109.90259	-366.43881	1219.22058	1191.0752	-230.00853	1384.70251	961.03833	-255.3598	1210.09753	861.3504	-250.45956	1057.99146	838.35876	-143.17627	1006.56006	829.1626	-11.17744	994.17212	863.69751	-37.63861	947.1579	839.30334	46.05157	944.33417	834.14221	-227.90489	1375.12903	1271.12451	-329.20139	1188.34814	1357.77783	-345.51138	1065.97852	1360.91992	-359.79828	949.33923	1393.48181	-325.23596	809.91748	1380.01099	-368.59518	827.6225	1414.51184	-361.12784	741.37006	1419.98596	-176.60571	912.60211	1002.59406	-154.90704	921.85339	1216.18884	-356.34161	926.7688	1075.90125	-339.09714	929.86871	1221.67603	-277.68015	584.02771	951.33069	-324.2149	454.86224	959.24548	-472.90836	335.18857	952.34698	-626.37579	176.63918	996.37891	-669.19507	193.48579	1050.63916	-575.74811	38.07039	1008.13184	-127.58561	602.1087	1286.33325	-64.26165	458.48279	1256.82654	-89.66707	283.06625	1268.52588	-92.50117	75.79253	1223.31201	-141.4369	36.96098	1176.28857	48.98455	37.72795	1215.26941	-124.91348	1684.75024	1137.80042	-1973.11963	1023.54742	3102.00708	-2012.51685	1022.01794	3140.66724
64	0.63	-151.91496	1650.42224	1056.94128	-92.86386	1650.35449	1155.1239	-256.57236	1610.88855	1113.6991	-196.69434	1609.74438	1216.7312	-294.69931	1416.7522	1128.34827	-333.2171	1120.39075	1122.2948	-148.90367	1346.28577	1120.39893	-107.67175	1194.12854	1111.36536	-352.2113	1219.20166	1193.69751	-216.79556	1385.01733	963.13611	-243.94557	1210.3606	863.8692	-239.47302	1058.44348	840.58679	-132.93669	1005.25433	830.52222	-0.68287	991.12823	864.49493	-28.07016	944.47003	840.4613	55.43957	940.05396	834.77612	-213.79224	1374.90076	1273.19287	-313.13193	1186.90601	1360.08997	-328.48837	1064.60938	1362.90991	-341.81833	948.16882	1395.68115	-306.40201	808.8302	1382.30261	-349.6629	826.41602	1416.94958	-341.7977	739.98004	1422.40137	-161.97069	912.20563	1004.68127	-140.21822	923.05353	1217.81055	-341.53232	925.96106	1076.82507	-325.00378	930.77197	1222.59424	-255.69354	581.82007	951.64838	-299.5419	452.3537	958.69525	-450.95328	336.97903	952.13281	-609.98859	183.47571	994.4848	-649.8089	203.7347	1050.13	-571.96655	40.94217	1008.75891	-111.80954	602.91937	1287.08276	-52.70808	457.10028	1257.50867	-81.69826	281.07678	1269.27136	-90.57663	75.17982	1222.80188	-140.84657	37.38618	1176.51904	50.48553	36.85732	1214.6886	-110.53947	1685.39124	1139.64453	-1973.19971	1023.51593	3101.9873	-2012.5741	1022.12024	3140.73218
65	0.64	-138.80864	1650.84473	1059.01575	-79.36592	1650.78809	1156.94641	-243.12985	1611.2085	1116.12268	-182.97038	1610.08447	1218.84668	-281.24167	1416.86609	1130.48633	-319.23041	1120.68713	1123.90417	-135.10011	1346.62012	1122.0929	-94.57088	1194.55872	1112.6261	-338.10046	1219.30371	1195.81506	-203.44675	1385.39417	965.09259	-232.47577	1210.70361	866.42224	-228.74155	1059.11816	842.76367	-122.7948	1004.09705	832.38287	9.3403	987.63293	865.26971	-19.05729	941.36255	841.60529	64.31147	935.08673	835.56091	-199.50821	1374.93201	1275.12939	-296.72372	1185.80029	1362.42139	-311.27161	1063.58655	1365.06042	-323.42139	947.07227	1397.94116	-286.84857	808.02496	1384.46399	-330.02426	825.40704	1419.58813	-321.56906	738.83594	1424.68384	-147.32922	912.1485	1006.87872	-125.94655	924.54352	1219.84192	-327.19525	925.50873	1077.71191	-310.7728	931.82324	1223.27869	-233.30032	579.72839	952.01086	-274.63101	449.95834	958.11633	-428.26266	339.08273	951.54547	-592.55023	190.91029	993.33698	-629.70081	214.38419	1049.07178	-564.7077	45.93893	1008.96808	-96.81524	603.02026	1288.21252	-42.62454	454.99893	1258.09192	-75.80025	279.55341	1269.51855	-89.49424	74.82721	1222.36865	-140.83704	37.60192	1176.23547	51.32671	36.06134	1214.43225	-96.65497	1685.74536	1141.40698	-1973.13599	1023.50775	3101.99121	-2012.5509	1022.09753	3140.70581
66	0.65	-125.57957	1651.54968	1060.84363	-65.72315	1651.46753	1158.87756	-229.82883	1611.6853	1118.19189	-169.27998	1610.52161	1220.79065	-267.66306	1417.31543	1132.60754	-305.43228	1121.20984	1125.25928	-121.41335	1347.10168	1123.64941	-80.73969	1195.06885	1113.77075	-324.01749	1219.62976	1197.64319	-190.08412	1385.85168	966.89667	-221.15181	1211.15259	868.63568	-218.6106	1059.45557	844.90564	-113.21572	1002.70245	834.00854	18.99097	983.67145	866.03241	-10.65359	937.88977	842.76587	72.41644	929.46411	836.27106	-185.1411	1375.1886	1276.89001	-279.98859	1185.01636	1364.79846	-293.59982	1062.7428	1367.25854	-304.40518	946.20233	1400.36365	-266.61191	807.42194	1386.47974	-309.64285	824.42615	1421.94702	-300.31302	737.94727	1427.01184	-133.05122	912.34882	1008.78149	-112.08594	925.99097	1221.95972	-313.13742	925.22382	1078.55298	-296.95203	932.97186	1223.97839	-210.79288	578.01355	952.4447	-249.07675	447.6644	957.83868	-404.76254	341.14212	951.30823	-573.10736	198.93422	993.15668	-608.87054	225.2439	1047.927	-553.9447	52.05246	1009.08801	-83.5517	602.92206	1289.32727	-33.9184	452.86346	1259.0188	-71.54404	278.63654	1269.56982	-88.94755	74.73769	1221.98718	-140.47676	37.9895	1176.02649	51.70659	35.64011	1213.97473	-83.44321	1686.19189	1143.30347	-1973.20349	1023.57269	3101.90527	-2012.48083	1021.97266	3140.67236
